<mxfile host="app.diagrams.net" modified="2024-05-26T03:03:15.686Z" agent="Mozilla/5.0 (Macintosh; Intel Mac OS X 10_15_7) AppleWebKit/537.36 (KHTML, like Gecko) Chrome/125.0.0.0 Safari/537.36" version="24.4.8" etag="1x0H8RufssaFhLGg34XK" type="device">
  <diagram id="iK8Litq1B9x8qgeLRw3W" name="PÃ¡gina-1">
    <mxGraphModel dx="954" dy="640" grid="1" gridSize="10" guides="1" tooltips="1" connect="1" arrows="1" fold="1" page="1" pageScale="1" pageWidth="827" pageHeight="1169" math="0" shadow="0">
      <root>
        <mxCell id="0" />
        <mxCell id="1" parent="0" />
        <mxCell id="Jc3IcEpLkS6EMF47Za3j-1" value="&lt;u&gt;:PhotoController&lt;/u&gt;" style="shape=umlLifeline;perimeter=lifelinePerimeter;whiteSpace=wrap;html=1;container=1;dropTarget=0;collapsible=0;recursiveResize=0;outlineConnect=0;portConstraint=eastwest;newEdgeStyle={&quot;edgeStyle&quot;:&quot;elbowEdgeStyle&quot;,&quot;elbow&quot;:&quot;vertical&quot;,&quot;curved&quot;:0,&quot;rounded&quot;:0};" vertex="1" parent="1">
          <mxGeometry x="130" y="50" width="100" height="440" as="geometry" />
        </mxCell>
        <mxCell id="Jc3IcEpLkS6EMF47Za3j-2" value="&lt;u&gt;:PhotoService&lt;/u&gt;" style="shape=umlLifeline;perimeter=lifelinePerimeter;whiteSpace=wrap;html=1;container=1;dropTarget=0;collapsible=0;recursiveResize=0;outlineConnect=0;portConstraint=eastwest;newEdgeStyle={&quot;edgeStyle&quot;:&quot;elbowEdgeStyle&quot;,&quot;elbow&quot;:&quot;vertical&quot;,&quot;curved&quot;:0,&quot;rounded&quot;:0};" vertex="1" parent="1">
          <mxGeometry x="290" y="50" width="100" height="440" as="geometry" />
        </mxCell>
        <mxCell id="Jc3IcEpLkS6EMF47Za3j-3" value="&lt;u&gt;:OpenAI&lt;/u&gt;&lt;div&gt;&lt;u&gt;Embeddings&lt;/u&gt;&lt;/div&gt;" style="shape=umlLifeline;perimeter=lifelinePerimeter;whiteSpace=wrap;html=1;container=1;dropTarget=0;collapsible=0;recursiveResize=0;outlineConnect=0;portConstraint=eastwest;newEdgeStyle={&quot;edgeStyle&quot;:&quot;elbowEdgeStyle&quot;,&quot;elbow&quot;:&quot;vertical&quot;,&quot;curved&quot;:0,&quot;rounded&quot;:0};" vertex="1" parent="1">
          <mxGeometry x="450" y="50" width="100" height="440" as="geometry" />
        </mxCell>
        <mxCell id="Jc3IcEpLkS6EMF47Za3j-4" value="&lt;u&gt;:Pinecone&lt;/u&gt;&lt;div&gt;&lt;u&gt;Service&lt;/u&gt;&lt;/div&gt;" style="shape=umlLifeline;perimeter=lifelinePerimeter;whiteSpace=wrap;html=1;container=1;dropTarget=0;collapsible=0;recursiveResize=0;outlineConnect=0;portConstraint=eastwest;newEdgeStyle={&quot;edgeStyle&quot;:&quot;elbowEdgeStyle&quot;,&quot;elbow&quot;:&quot;vertical&quot;,&quot;curved&quot;:0,&quot;rounded&quot;:0};" vertex="1" parent="1">
          <mxGeometry x="610" y="50" width="100" height="440" as="geometry" />
        </mxCell>
        <mxCell id="Jc3IcEpLkS6EMF47Za3j-5" value="" style="endArrow=open;startArrow=none;endFill=0;startFill=0;endSize=8;html=1;verticalAlign=bottom;labelBackgroundColor=none;strokeWidth=1;rounded=0;" edge="1" parent="1">
          <mxGeometry width="160" relative="1" as="geometry">
            <mxPoint x="20" y="130" as="sourcePoint" />
            <mxPoint x="180" y="130" as="targetPoint" />
          </mxGeometry>
        </mxCell>
        <mxCell id="Jc3IcEpLkS6EMF47Za3j-6" value="GET /photos" style="edgeLabel;html=1;align=center;verticalAlign=middle;resizable=0;points=[];" vertex="1" connectable="0" parent="Jc3IcEpLkS6EMF47Za3j-5">
          <mxGeometry x="0.3125" y="-3" relative="1" as="geometry">
            <mxPoint x="-25" y="-13" as="offset" />
          </mxGeometry>
        </mxCell>
        <mxCell id="Jc3IcEpLkS6EMF47Za3j-7" value="" style="endArrow=open;startArrow=none;endFill=0;startFill=0;endSize=8;html=1;verticalAlign=bottom;labelBackgroundColor=none;strokeWidth=1;rounded=0;" edge="1" parent="1">
          <mxGeometry width="160" relative="1" as="geometry">
            <mxPoint x="180" y="160" as="sourcePoint" />
            <mxPoint x="339.5" y="160" as="targetPoint" />
          </mxGeometry>
        </mxCell>
        <mxCell id="Jc3IcEpLkS6EMF47Za3j-8" value="getImagesByTextDescription()" style="edgeLabel;html=1;align=center;verticalAlign=middle;resizable=0;points=[];" vertex="1" connectable="0" parent="Jc3IcEpLkS6EMF47Za3j-7">
          <mxGeometry x="0.3125" y="-3" relative="1" as="geometry">
            <mxPoint x="-25" y="-13" as="offset" />
          </mxGeometry>
        </mxCell>
        <mxCell id="Jc3IcEpLkS6EMF47Za3j-9" value="" style="endArrow=open;startArrow=none;endFill=0;startFill=0;endSize=8;html=1;verticalAlign=bottom;labelBackgroundColor=none;strokeWidth=1;rounded=0;" edge="1" parent="1">
          <mxGeometry width="160" relative="1" as="geometry">
            <mxPoint x="340" y="180" as="sourcePoint" />
            <mxPoint x="340" y="210" as="targetPoint" />
            <Array as="points">
              <mxPoint x="370" y="180" />
              <mxPoint x="370" y="210" />
            </Array>
          </mxGeometry>
        </mxCell>
        <mxCell id="Jc3IcEpLkS6EMF47Za3j-10" value="getImagesByTextDescription()" style="edgeLabel;html=1;align=center;verticalAlign=middle;resizable=0;points=[];" vertex="1" connectable="0" parent="Jc3IcEpLkS6EMF47Za3j-9">
          <mxGeometry x="0.3125" y="-3" relative="1" as="geometry">
            <mxPoint x="53" y="-49" as="offset" />
          </mxGeometry>
        </mxCell>
        <mxCell id="Jc3IcEpLkS6EMF47Za3j-11" value="" style="endArrow=open;startArrow=none;endFill=0;startFill=0;endSize=8;html=1;verticalAlign=bottom;labelBackgroundColor=none;strokeWidth=1;rounded=0;" edge="1" parent="1">
          <mxGeometry width="160" relative="1" as="geometry">
            <mxPoint x="340" y="240" as="sourcePoint" />
            <mxPoint x="499.5" y="240" as="targetPoint" />
          </mxGeometry>
        </mxCell>
        <mxCell id="Jc3IcEpLkS6EMF47Za3j-12" value="getTextVectorRepresentation()" style="edgeLabel;html=1;align=center;verticalAlign=middle;resizable=0;points=[];" vertex="1" connectable="0" parent="Jc3IcEpLkS6EMF47Za3j-11">
          <mxGeometry x="0.3125" y="-3" relative="1" as="geometry">
            <mxPoint x="-25" y="-13" as="offset" />
          </mxGeometry>
        </mxCell>
        <mxCell id="Jc3IcEpLkS6EMF47Za3j-13" value="" style="endArrow=open;startArrow=none;endFill=0;startFill=0;endSize=8;html=1;verticalAlign=bottom;labelBackgroundColor=none;strokeWidth=1;rounded=0;" edge="1" parent="1" target="Jc3IcEpLkS6EMF47Za3j-4">
          <mxGeometry width="160" relative="1" as="geometry">
            <mxPoint x="340" y="280" as="sourcePoint" />
            <mxPoint x="499.5" y="280" as="targetPoint" />
          </mxGeometry>
        </mxCell>
        <mxCell id="Jc3IcEpLkS6EMF47Za3j-14" value="queryVector()" style="edgeLabel;html=1;align=center;verticalAlign=middle;resizable=0;points=[];" vertex="1" connectable="0" parent="Jc3IcEpLkS6EMF47Za3j-13">
          <mxGeometry x="0.3125" y="-3" relative="1" as="geometry">
            <mxPoint x="-25" y="-13" as="offset" />
          </mxGeometry>
        </mxCell>
        <mxCell id="Jc3IcEpLkS6EMF47Za3j-18" value="&lt;u&gt;:S3Service&lt;/u&gt;" style="shape=umlLifeline;perimeter=lifelinePerimeter;whiteSpace=wrap;html=1;container=1;dropTarget=0;collapsible=0;recursiveResize=0;outlineConnect=0;portConstraint=eastwest;newEdgeStyle={&quot;edgeStyle&quot;:&quot;elbowEdgeStyle&quot;,&quot;elbow&quot;:&quot;vertical&quot;,&quot;curved&quot;:0,&quot;rounded&quot;:0};" vertex="1" parent="1">
          <mxGeometry x="770" y="50" width="100" height="440" as="geometry" />
        </mxCell>
        <mxCell id="Jc3IcEpLkS6EMF47Za3j-19" value="" style="endArrow=open;startArrow=none;endFill=0;startFill=0;endSize=8;html=1;verticalAlign=bottom;labelBackgroundColor=none;strokeWidth=1;rounded=0;" edge="1" parent="1" target="Jc3IcEpLkS6EMF47Za3j-18">
          <mxGeometry width="160" relative="1" as="geometry">
            <mxPoint x="340" y="423" as="sourcePoint" />
            <mxPoint x="979.5" y="423" as="targetPoint" />
          </mxGeometry>
        </mxCell>
        <mxCell id="Jc3IcEpLkS6EMF47Za3j-20" value="*getObjects()" style="edgeLabel;html=1;align=center;verticalAlign=middle;resizable=0;points=[];" vertex="1" connectable="0" parent="Jc3IcEpLkS6EMF47Za3j-19">
          <mxGeometry x="0.3125" y="-3" relative="1" as="geometry">
            <mxPoint x="-130" y="-13" as="offset" />
          </mxGeometry>
        </mxCell>
        <mxCell id="Jc3IcEpLkS6EMF47Za3j-21" value="" style="html=1;verticalAlign=bottom;labelBackgroundColor=none;endArrow=block;endFill=1;dashed=1;rounded=0;" edge="1" parent="1">
          <mxGeometry width="160" relative="1" as="geometry">
            <mxPoint x="339.5000000000002" y="456" as="sourcePoint" />
            <mxPoint x="179.32352941176464" y="456" as="targetPoint" />
          </mxGeometry>
        </mxCell>
        <mxCell id="Jc3IcEpLkS6EMF47Za3j-22" value="SimilarObjects" style="edgeLabel;html=1;align=center;verticalAlign=middle;resizable=0;points=[];" vertex="1" connectable="0" parent="Jc3IcEpLkS6EMF47Za3j-21">
          <mxGeometry x="0.3555" relative="1" as="geometry">
            <mxPoint x="29" y="-10" as="offset" />
          </mxGeometry>
        </mxCell>
        <mxCell id="Jc3IcEpLkS6EMF47Za3j-23" value="" style="endArrow=open;startArrow=none;endFill=0;startFill=0;endSize=8;html=1;verticalAlign=bottom;labelBackgroundColor=none;strokeWidth=1;rounded=0;" edge="1" parent="1">
          <mxGeometry width="160" relative="1" as="geometry">
            <mxPoint x="340" y="370" as="sourcePoint" />
            <mxPoint x="340" y="400" as="targetPoint" />
            <Array as="points">
              <mxPoint x="370" y="370" />
              <mxPoint x="370" y="400" />
            </Array>
          </mxGeometry>
        </mxCell>
        <mxCell id="Jc3IcEpLkS6EMF47Za3j-24" value="getImagesOfObjects()" style="edgeLabel;html=1;align=center;verticalAlign=middle;resizable=0;points=[];" vertex="1" connectable="0" parent="Jc3IcEpLkS6EMF47Za3j-23">
          <mxGeometry x="0.3125" y="-3" relative="1" as="geometry">
            <mxPoint x="63" y="-29" as="offset" />
          </mxGeometry>
        </mxCell>
      </root>
    </mxGraphModel>
  </diagram>
</mxfile>
